# xmcd
#
# Track frame offsets:
#	182
#	12807
#	25875
#	40672
#	57125
#	71112
#	83657
#	99970
#	115310
#	130832
#	145260
#
# Disc length: 2157 seconds
#
# Revision: 0
# Processed by: cddbd v1.5.2PL0 Copyright (c) Steve Scherf et al.
# Submitted via: audiograbber 1.83.01
#
DISCID=88086b0b
DTITLE=Clay Walker - Hypnotize The Moon
DYEAR=1995
DGENRE=Country
TTITLE0=Who Needs You Baby
TTITLE1=I Won't Have The Heart
TTITLE2=Let Me Take The Heartache (Off Your Hands)
TTITLE3=Hypnotize The Moon
TTITLE4=Hand Me Down Heart
TTITLE5=Only On Days That End In ''Y''
TTITLE6=Where Were You
TTITLE7=Loving You Comes Naturally To Me
TTITLE8=Bury The Shovel
TTITLE9=A Cowboy's Toughest Ride
TTITLE10=Love Me Like You Love Me
EXTD=
EXTT0=
EXTT1=
EXTT2=
EXTT3=
EXTT4=
EXTT5=
EXTT6=
EXTT7=
EXTT8=
EXTT9=
EXTT10=
PLAYORDER=
